<svg xmlns="http://www.w3.org/2000/svg" viewBox="0 0 128 128" width="128" height="128"><g fill="none" stroke="#1F4634" stroke-width="1.2"><path d="M14,60 Q64,26 114,60"></path><rect x="14" y="60" width="100" height="46"></rect></g><g stroke="#1F4634" stroke-width="0.5" opacity=".38"><line x1="16" y1="66" x2="112" y2="66"></line><line x1="16" y1="70" x2="112" y2="70"></line><line x1="16" y1="74" x2="112" y2="74"></line><line x1="16" y1="78" x2="112" y2="78"></line><line x1="16" y1="82" x2="112" y2="82"></line><line x1="16" y1="86" x2="112" y2="86"></line><line x1="16" y1="90" x2="112" y2="90"></line><line x1="16" y1="94" x2="112" y2="94"></line><line x1="16" y1="98" x2="112" y2="98"></line><line x1="16" y1="102" x2="112" y2="102"></line></g><g fill="#1F4634"><rect x="32" y="44" width="8" height="62"></rect><rect x="88" y="44" width="8" height="62"></rect><rect x="55" y="64" width="18" height="22"></rect></g><g fill="#FDFBF7"><circle cx="64" cy="71" r="3.4"></circle><path d="M62,73 L66,73 L65,81 L63,81 Z"></path></g><g fill="none" stroke="#1F4634" stroke-width="0.9"><path d="M14,72 h100"></path><path d="M8,110 h112"></path></g><g fill="none" stroke="#1F4634" stroke-width="1.1"><path d="M14,96 h6 M108,96 h6"></path></g></svg>
